# xmcd
#
# Track frame offsets: 
#        150
#        12030
#        24640
#        37422
#        47785
#        59169
#        73318
#        87325
#        96353
#        108686
#        121620
#        132108
#        143261
#        155372
#        167078
#        181370
#        193878
#
# Disc length: 2771 seconds
#
# Revision: 0
# Processed by: cddbd v1.5.2PL0 Copyright (c) Steve Scherf et al.
# Submitted via: ExactAudioCopy v0.95b4
#
DISCID=f40ad111
DTITLE=Ray Charles - Sentimental Blues [CD2]
DYEAR=2005
DGENRE=Soul
TTITLE0=C.C. Rider
TTITLE1=Rockin' Chair Blues
TTITLE2=Can Anyone Ask For More
TTITLE3=Ain't That Fine
TTITLE4=Confession Blues
TTITLE5=Baby Let Me Hold Your Hand
TTITLE6=This Love of Mine
TTITLE7=All to Myself Alone
TTITLE8=Honey Honey
TTITLE9=Don't Put All Your Dreams In One Basket
TTITLE10=Th'Ego Song
TTITLE11=I'll Do Anything But Work
TTITLE12=I'm Glad For Your Sake
TTITLE13=How Long Blues
TTITLE14=Someday
TTITLE15=I Love You I Love You (I Will Never Let You Go)
TTITLE16=Late in the Evening Blues
EXTD=
EXTT0=
EXTT1=
EXTT2=
EXTT3=
EXTT4=
EXTT5=
EXTT6=
EXTT7=
EXTT8=
EXTT9=
EXTT10=
EXTT11=
EXTT12=
EXTT13=
EXTT14=
EXTT15=
EXTT16=
PLAYORDER=
